<?xml version="1.0" standalone="no"?>
<!DOCTYPE svg PUBLIC "-//W3C//DTD SVG 20010904//EN"
 "http://www.w3.org/TR/2001/REC-SVG-20010904/DTD/svg10.dtd">
<svg version="1.0" xmlns="http://www.w3.org/2000/svg"
 width="1350.000000pt" height="1350.000000pt" viewBox="0 0 1350.000000 1350.000000"
 preserveAspectRatio="xMidYMid meet">
<metadata>
Created by potrace 1.10, written by Peter Selinger 2001-2011
</metadata>
<g transform="translate(0.000000,1350.000000) scale(0.100000,-0.100000)"
fill="#000000" stroke="none">
<path d="M0 6750 l0 -6750 6750 0 6750 0 0 6750 0 6750 -6750 0 -6750 0 0
-6750z m6929 4069 c98 -29 168 -74 256 -163 79 -81 81 -84 241 -401 88 -176
261 -518 384 -760 122 -242 334 -660 470 -930 486 -962 785 -1555 957 -1895
97 -190 287 -565 423 -835 136 -269 362 -717 503 -995 394 -779 426 -844 423
-848 -2 -1 -632 -4 -1399 -5 -1226 -2 -1398 -4 -1411 -17 -14 -15 -25 -34
-126 -225 -27 -49 -60 -110 -73 -135 -14 -25 -49 -90 -77 -145 -29 -55 -56
-104 -60 -110 -7 -9 -39 -69 -151 -280 -26 -49 -59 -110 -72 -135 -14 -25 -39
-70 -54 -100 -94 -179 -138 -253 -140 -235 -11 95 -26 344 -33 550 -4 138 -13
333 -19 435 -6 102 -18 336 -26 520 -37 815 -59 1279 -75 1575 -5 99 -10 239
-10 311 l0 130 51 72 c37 54 56 72 73 72 34 0 154 -83 199 -137 78 -94 128
-186 172 -318 39 -115 56 -119 101 -26 49 99 68 181 72 319 3 100 -1 138 -18
205 -37 145 -115 279 -213 365 -102 90 -97 82 -83 148 44 197 48 244 43 490
-2 131 -10 257 -16 279 -6 22 -22 84 -36 138 -66 262 -213 527 -414 749 -19
21 -42 38 -52 38 -50 0 -267 -293 -359 -485 -61 -126 -130 -324 -130 -369 0
-15 -5 -37 -11 -49 -46 -84 -45 -552 1 -737 50 -202 155 -454 241 -581 44 -63
47 -88 24 -184 -8 -33 -15 -78 -15 -101 0 -23 -4 -54 -10 -70 -5 -16 -14 -63
-19 -104 -19 -142 -46 -319 -86 -555 -7 -44 -18 -110 -24 -148 -6 -37 -15 -86
-20 -110 -5 -23 -12 -69 -16 -102 -28 -249 -139 -474 -318 -650 -110 -108
-264 -203 -387 -238 -30 -9 -82 -24 -115 -33 -56 -17 -147 -18 -1324 -22 -695
-1 -1270 -1 -1278 2 -9 4 46 121 191 408 112 222 298 590 413 818 116 228 359
710 541 1070 182 360 412 817 512 1015 425 840 726 1436 925 1830 117 231 326
645 465 920 139 275 268 521 287 547 71 98 193 189 300 224 104 34 293 36 402
3z"/>
<path d="M6083 6578 c-94 -128 -137 -252 -150 -433 -6 -91 25 -239 74 -353 38
-86 67 -81 98 18 31 97 94 217 147 282 29 35 56 65 60 66 5 2 15 16 23 31 13
26 12 32 -23 92 -48 84 -94 179 -123 254 -23 60 -45 95 -60 95 -4 0 -25 -23
-46 -52z"/>
</g>
</svg>
